<svg xmlns="http://www.w3.org/2000/svg" width="30.4" height="26.99" viewBox="0 0 30.4 26.99"><defs><style>.cls-1{fill:#fff;}.cls-2{fill:#e12c6d;}</style></defs><title>logomark</title><g id="レイヤー_2" data-name="レイヤー 2"><g id="レイヤー_1-2" data-name="レイヤー 1"><path class="cls-1" d="M29.79,17.29a1.54,1.54,0,0,1,.61,1.31,1.6,1.6,0,0,1-.66,1.27l-8,6.38a3.37,3.37,0,0,1-2.11.74H.84A.82.82,0,0,1,0,26.15V21.08a.8.8,0,0,1,.24-.6.81.81,0,0,1,.6-.24h2.9l2.48-2a6,6,0,0,1,3.91-1.38h8.43a1.6,1.6,0,0,1,1.29.61,1.65,1.65,0,0,1,.4,1.35,1.55,1.55,0,0,1-.63,1,1.86,1.86,0,0,1-1.16.4H14.34a.81.81,0,0,0-.6.24.8.8,0,0,0-.24.6.82.82,0,0,0,.84.85h6.23a3.23,3.23,0,0,0,2.11-.74l4.9-3.9a1.61,1.61,0,0,1,1.13-.43A1.43,1.43,0,0,1,29.79,17.29Z"/><path class="cls-2" d="M14.5,13.17l-5.75-6A4.3,4.3,0,0,1,7.62,4,4.16,4.16,0,0,1,9.07.89,3.77,3.77,0,0,1,11.89,0a4,4,0,0,1,2.72,1.29l.58.63.58-.63A4.2,4.2,0,0,1,18.51,0,3.71,3.71,0,0,1,21.3.89,4.12,4.12,0,0,1,22.81,4a4.19,4.19,0,0,1-1.19,3.19l-5.75,6a.89.89,0,0,1-1.37,0Z"/></g></g></svg>