<svg
   xmlns:dc="http://purl.org/dc/elements/1.1/"
   xmlns:cc="http://creativecommons.org/ns#"
   xmlns:rdf="http://www.w3.org/1999/02/22-rdf-syntax-ns#"
   xmlns:svg="http://www.w3.org/2000/svg"
   xmlns="http://www.w3.org/2000/svg"
   xmlns:sodipodi="http://sodipodi.sourceforge.net/DTD/sodipodi-0.dtd"
   xmlns:inkscape="http://www.inkscape.org/namespaces/inkscape"
   width="32"
   height="32"
   viewBox="0 0 32 32"
   version="1.1"
   id="svg1113"
   sodipodi:docname="negative.svg"
   inkscape:version="1.0.1 (3bc2e813f5, 2020-09-07)">
  <metadata
     id="metadata1117">
    <rdf:RDF>
      <cc:Work
         rdf:about="">
        <dc:format>image/svg+xml</dc:format>
        <dc:type
           rdf:resource="http://purl.org/dc/dcmitype/StillImage" />
        <dc:title>icon_negative</dc:title>
      </cc:Work>
    </rdf:RDF>
  </metadata>
  <sodipodi:namedview
     pagecolor="#ffffff"
     bordercolor="#666666"
     borderopacity="1"
     objecttolerance="10"
     gridtolerance="10"
     guidetolerance="10"
     inkscape:pageopacity="0"
     inkscape:pageshadow="2"
     inkscape:window-width="1920"
     inkscape:window-height="1137"
     id="namedview1115"
     showgrid="false"
     inkscape:zoom="26.998623"
     inkscape:cx="12.895997"
     inkscape:cy="14.648724"
     inkscape:window-x="-8"
     inkscape:window-y="-8"
     inkscape:window-maximized="1"
     inkscape:current-layer="レイヤー_1-2"
     inkscape:document-rotation="0" />
  <defs
     id="defs1101">
    <style
       id="style1099">.cls-1{fill:#006481;}.cls-2{fill:#fff;}</style>
  </defs>
  <title
     id="title1103">icon_negative</title>
  <g
     id="レイヤー_2"
     data-name="レイヤー 2"
     style="stroke-width:1.00157;stroke-miterlimit:4;stroke-dasharray:none">
    <g
       id="レイヤー_1-2"
       data-name="レイヤー 1"
       style="stroke-width:1.00157;stroke-miterlimit:4;stroke-dasharray:none">
      <path
         class="cls-1"
         d="M 31.998217,28.57401 A 3.3244722,3.3244722 0 0 1 28.57401,31.998217 H 3.4243779 A 3.3244722,3.3244722 0 0 1 0.99751312,31.000875 3.3244722,3.3244722 0 0 1 1.7149429e-4,28.57401 V 3.4243779 A 3.3244722,3.3244722 0 0 1 0.99751312,0.99751321 3.3244722,3.3244722 0 0 1 3.4243779,1.7149429e-4 H 28.57401 A 3.3244722,3.3244722 0 0 1 31.000876,0.99751321 3.3244722,3.3244722 0 0 1 31.998217,3.4243779 Z"
         id="path1105"
         style="fill:#1e82fe;fill-opacity:1;stroke-width:1.66484;stroke-miterlimit:4;stroke-dasharray:none" />
      <path
         class="cls-2"
         d="M 28.535546,3.8565593 A 0.39839966,0.39893667 0 0 0 28.386147,3.5739792 0.39839966,0.39893667 0 0 0 28.103947,3.4243779 H 3.8513677 A 0.39839966,0.39893667 0 0 0 3.5691679,3.5739792 0.39839966,0.39893667 0 0 0 3.419768,3.8565593 V 28.141829 a 0.39839966,0.39893667 0 0 0 0.1493999,0.28258 0.39839966,0.39893667 0 0 0 0.2821998,0.149601 H 28.103947 a 0.54779953,0.54853792 0 0 0 0.431599,-0.432181 z"
         id="path1107"
         style="stroke-width:1.66372;stroke-miterlimit:4;stroke-dasharray:none" />
      <path
         class="cls-1"
         d="M 7.1049649,17.752853 A 0.76359935,0.76462862 0 0 1 6.8559651,17.137826 V 14.860562 A 0.76359935,0.76462862 0 0 1 7.1049649,14.245535 0.8133993,0.8144957 0 0 1 7.7025644,13.9962 H 24.30255 a 0.8133993,0.8144957 0 0 1 0.597599,0.249335 0.78019933,0.78125098 0 0 1 0.2656,0.615027 v 2.277264 a 0.78019933,0.78125098 0 0 1 -0.2656,0.615027 0.8133993,0.8144957 0 0 1 -0.597599,0.249336 H 7.7025644 A 0.8133993,0.8144957 0 0 1 7.1049649,17.752853 Z"
         id="path1109"
         style="fill:#1e82fe;fill-opacity:1;stroke:none;stroke-width:1.66372;stroke-miterlimit:4;stroke-dasharray:none" />
    </g>
  </g>
</svg>
