<svg
   xmlns:dc="http://purl.org/dc/elements/1.1/"
   xmlns:cc="http://creativecommons.org/ns#"
   xmlns:rdf="http://www.w3.org/1999/02/22-rdf-syntax-ns#"
   xmlns:svg="http://www.w3.org/2000/svg"
   xmlns="http://www.w3.org/2000/svg"
   xmlns:sodipodi="http://sodipodi.sourceforge.net/DTD/sodipodi-0.dtd"
   xmlns:inkscape="http://www.inkscape.org/namespaces/inkscape"
   width="32"
   height="32"
   viewBox="0 0 32 32"
   version="1.1"
   id="svg1151"
   sodipodi:docname="positive.svg"
   inkscape:version="1.0.1 (3bc2e813f5, 2020-09-07)">
  <metadata
     id="metadata1155">
    <rdf:RDF>
      <cc:Work
         rdf:about="">
        <dc:format>image/svg+xml</dc:format>
        <dc:type
           rdf:resource="http://purl.org/dc/dcmitype/StillImage" />
        <dc:title>icon_positive</dc:title>
      </cc:Work>
    </rdf:RDF>
  </metadata>
  <sodipodi:namedview
     pagecolor="#ffffff"
     bordercolor="#666666"
     borderopacity="1"
     objecttolerance="10"
     gridtolerance="10"
     guidetolerance="10"
     inkscape:pageopacity="0"
     inkscape:pageshadow="2"
     inkscape:window-width="1920"
     inkscape:window-height="1137"
     id="namedview1153"
     showgrid="false"
     inkscape:zoom="19.090909"
     inkscape:cx="8.2002268"
     inkscape:cy="11.711725"
     inkscape:window-x="-8"
     inkscape:window-y="-8"
     inkscape:window-maximized="1"
     inkscape:current-layer="レイヤー_1-2"
     inkscape:document-rotation="0" />
  <defs
     id="defs1141">
    <style
       id="style1139">.cls-1{fill:#df0615;}.cls-2{fill:#fff;}</style>
  </defs>
  <title
     id="title1143">icon_positive</title>
  <g
     id="レイヤー_2"
     data-name="レイヤー 2">
    <g
       id="レイヤー_1-2"
       data-name="レイヤー 1">
      <path
         class="cls-1"
         d="M 28.574011,1.7144056e-4 A 3.3244723,3.3244723 0 0 1 31.000875,0.99751314 3.3244723,3.3244723 0 0 1 31.998217,3.4243779 V 28.57401 a 3.3244723,3.3244723 0 0 1 -3.424206,3.424207 H 3.4243776 A 3.3244723,3.3244723 0 0 1 0.99751284,31.000876 3.3244723,3.3244723 0 0 1 1.7117063e-4,28.57401 V 3.4243779 A 3.3244723,3.3244723 0 0 1 0.99751284,0.99751314 3.3244723,3.3244723 0 0 1 3.4243776,1.7144056e-4 Z"
         id="path1145"
         style="fill:#ff0073;fill-opacity:1;stroke-width:1.66224" />
      <path
         class="cls-2"
         d="M 28.574011,3.8565592 A 0.39893667,0.39893667 0 0 0 28.424409,3.5739792 0.39893667,0.39893667 0 0 0 28.141828,3.4243779 H 3.8565585 A 0.39893667,0.39893667 0 0 0 3.5739784,3.5739792 0.39893667,0.39893667 0 0 0 3.4243771,3.8565592 V 28.141829 a 0.39893667,0.39893667 0 0 0 0.1496013,0.282581 0.39893667,0.39893667 0 0 0 0.2825801,0.1496 H 28.141828 a 0.54853792,0.54853793 0 0 0 0.432183,-0.432181 z"
         id="path1107"
         style="fill:#ffffff;stroke-width:1.66484;stroke-miterlimit:4;stroke-dasharray:none" />
      <path
         class="cls-2"
         d="m 26.280124,17.196452 v -2.394516 c 0,-0.468194 -0.379552,-0.845292 -0.84774,-0.84774 h -7.454682 v -7.30508 c 0,-0.4681941 -0.379547,-0.8477405 -0.84774,-0.8477405 h -2.328026 c -0.468194,0 -0.845414,0.3795521 -0.84774,0.8477405 v 7.454681 H 6.6491157 c -0.468194,0 -0.8477404,0.379546 -0.8477404,0.847741 v 2.394516 c 0,0.468193 0.3795527,0.845291 0.8477404,0.847739 h 7.4546823 v 7.454682 c 0,0.468193 0.379546,0.84774 0.84774,0.84774 h 2.394514 c 0.468194,0 0.847741,-0.379547 0.847741,-0.84774 v -7.454682 h 7.454682 c 0.468193,0 0.631649,-0.529147 0.631649,-0.997341 z"
         id="path1147"
         sodipodi:nodetypes="csscsssscsssscsssscsc"
         style="fill:#fc0071;fill-opacity:1;stroke-width:1.66224" />
    </g>
  </g>
</svg>
