<?xml version="1.0" encoding="UTF-8" standalone="no"?>
<svg
   xmlns:dc="http://purl.org/dc/elements/1.1/"
   xmlns:cc="http://creativecommons.org/ns#"
   xmlns:rdf="http://www.w3.org/1999/02/22-rdf-syntax-ns#"
   xmlns:svg="http://www.w3.org/2000/svg"
   xmlns="http://www.w3.org/2000/svg"
   xmlns:sodipodi="http://sodipodi.sourceforge.net/DTD/sodipodi-0.dtd"
   xmlns:inkscape="http://www.inkscape.org/namespaces/inkscape"
   width="32"
   height="32"
   viewBox="0 0 32 32"
   version="1.1"
   id="svg1113"
   sodipodi:docname="suspicious.svg"
   inkscape:version="1.0.1 (3bc2e813f5, 2020-09-07)">
  <metadata
     id="metadata1117">
    <rdf:RDF>
      <cc:Work
         rdf:about="">
        <dc:format>image/svg+xml</dc:format>
        <dc:type
           rdf:resource="http://purl.org/dc/dcmitype/StillImage" />
        <dc:title>icon_negative</dc:title>
      </cc:Work>
    </rdf:RDF>
  </metadata>
  <sodipodi:namedview
     pagecolor="#ffffff"
     bordercolor="#666666"
     borderopacity="1"
     objecttolerance="10"
     gridtolerance="10"
     guidetolerance="10"
     inkscape:pageopacity="0"
     inkscape:pageshadow="2"
     inkscape:window-width="1920"
     inkscape:window-height="1137"
     id="namedview1115"
     showgrid="false"
     inkscape:zoom="26.998623"
     inkscape:cx="9.7041331"
     inkscape:cy="14.580874"
     inkscape:window-x="-8"
     inkscape:window-y="-8"
     inkscape:window-maximized="1"
     inkscape:current-layer="g7936"
     inkscape:document-rotation="0" />
  <defs
     id="defs1101">
    <style
       id="style1099">.cls-1{fill:#006481;}.cls-2{fill:#fff;}</style>
  </defs>
  <title
     id="title1103">icon_negative</title>
  <g
     id="レイヤー_2"
     data-name="レイヤー 2"
     style="stroke-width:1.00157;stroke-miterlimit:4;stroke-dasharray:none">
    <g
       id="レイヤー_1-2"
       data-name="レイヤー 1"
       style="stroke-width:1.00157;stroke-miterlimit:4;stroke-dasharray:none">
      <g
         id="g7936"
         transform="scale(0.96991395,0.97100404)">
        <path
           class="cls-1"
           d="m 32.990779,29.427282 a 3.427595,3.4237471 0 0 1 -3.530423,3.52646 H 3.5305996 A 3.427595,3.4237471 0 0 1 1.0284553,31.926618 3.427595,3.4237471 0 0 1 1.7675853e-4,29.427282 V 3.5266358 A 3.427595,3.4237471 0 0 1 1.0284553,1.0273004 3.427595,3.4237471 0 0 1 3.5305996,1.7628209e-4 H 29.460356 A 3.427595,3.4237471 0 0 1 31.9625,1.0273004 3.427595,3.4237471 0 0 1 32.990779,3.5266358 Z"
           id="path1105"
           style="fill:#01bb13;fill-opacity:1;stroke-width:1.71552;stroke-miterlimit:4;stroke-dasharray:none" />
        <path
           class="cls-2"
           d="M 29.460356,3.9717229 A 0.4113114,0.41084965 0 0 0 29.306114,3.6807044 0.4113114,0.41084965 0 0 0 29.014769,3.5266358 H 3.976187 A 0.4113114,0.41084965 0 0 0 3.6848414,3.6807044 0.4113114,0.41084965 0 0 0 3.5305996,3.9717229 V 28.982195 a 0.4113114,0.41084965 0 0 0 0.1542418,0.291019 0.4113114,0.41084965 0 0 0 0.2913456,0.154068 h 25.038582 a 0.56555318,0.56491827 0 0 0 0.445587,-0.445087 z"
           id="path1107"
           style="stroke-width:1.71552;stroke-miterlimit:4;stroke-dasharray:none" />
        <path
           class="cls-2"
           d="m 14.673869,21.984032 a 2.4429143,2.2692136 0 0 0 -0.749675,1.680899 2.4170633,2.2452006 0 0 0 0.749675,1.668893 2.4429143,2.2692136 0 0 0 1.809566,0.696373 2.5850945,2.4012841 0 0 0 2.585095,-2.401286 2.4429143,2.2692136 0 0 0 -0.749677,-1.680898 2.4170633,2.2452006 0 0 0 -1.796641,-0.696372 2.4429143,2.2692136 0 0 0 -1.848343,0.732391 z"
           id="path2638"
           style="fill:#01bb13;fill-opacity:1;stroke-width:1.24575" />
        <path
           class="cls-2"
           d="m 14.248802,19.53241 c 0.0063,0.165452 0.08489,0.321375 0.217822,0.431644 0.141073,0.133835 0.335718,0.207117 0.537292,0.202335 l 2.968728,-0.02109 c 0.196891,0.0028 0.386159,-0.0706 0.522772,-0.202334 0.13294,-0.110281 0.211621,-0.266192 0.217821,-0.431645 -0.0088,-0.338362 0.03086,-1.393064 0.03086,-1.393064 -0.0056,-0.184418 0.09284,-0.334126 0.09284,-0.334126 0,0 0.10578,-0.181473 0.332686,-0.192014 1.169461,-0.368502 4.304731,-1.940126 4.301785,-5.398666 -0.02968,-3.205143 -3.365135,-5.2964757 -6.996013,-5.2682278 -3.701337,0.00582 -6.859432,2.180968 -6.9541875,5.7351238 0,0.210768 0.1483688,0.33618 0.1483688,0.33618 0,0 0.165356,0.138736 0.3609727,0.13228 l 2.657416,-0.08795 c 0.192646,-0.0063 0.354428,-0.199052 0.354428,-0.199052 0,0 0.127412,-0.162252 0.114667,-0.35217 -0.03404,-1.164424 0.8501,-2.8604435 3.384125,-2.9140026 2.282633,-0.087504 3.615964,1.5839816 3.632397,2.7816526 0.08699,2.535179 -2.12474,3.71397 -5.458333,3.902475 -0.271782,0.01017 -0.420242,0.178666 -0.420242,0.178666 0,0 -0.176121,0.148062 -0.186991,0.380334 z"
           id="path2640"
           sodipodi:nodetypes="cccccccccccccsscccccccc"
           style="fill:#01bb13;fill-opacity:1;stroke-width:1.39956" />
      </g>
    </g>
  </g>
</svg>
